# File created by Blade
# Date/Time:  Wed Sep 24 19:10:19 2014
# Frame Rate: 120.000 fps
#------------------------------------------------------
:FULLY-SPECIFIED
:DEGREES
2802
root -9.095748 34.431118 -4.132276 42.864093 22.354282 39.974110
Spine -11.169575 -6.090450 -19.170904
Head -9.744618 22.778412 -10.330989
LeftShoulder -3.008549 6.728707 11.306391
LeftArm 38.928174 -9.907961 -81.838181
LeftForeArm 5.947083 -0.000000 75.857164
LeftHand -26.396458 -0.000000 28.182460
LeftHandThumb1 -26.253704 0.000000 33.147579
RightShoulder -14.026796 11.224152 -23.534332
RightArm -15.643463 -18.883312 73.147234
RightForeArm -21.932628 0.000000 30.410112
RightHand -4.777329 0.000000 10.625264
RightHandThumb1 -24.326973 -0.000000 -32.862282
LeftUpLeg -19.754664 15.010550 32.963871
LeftLeg 10.019885 -0.000000 -0.000000
LeftFoot 36.321710 14.865466 -17.516158
LeftToeBase 4.922379 -0.000000 -0.000000
RightUpLeg -34.315044 -25.797974 -19.376120
RightLeg 20.579335 -0.000000 -0.000000
RightFoot -11.150439 -28.393207 -4.900536
RightToeBase -1.135715 -0.000000 0.000000
2803
root -9.107127 34.430911 -4.134437 42.796039 22.356526 39.943949
Spine -11.091709 -6.053700 -19.034812
Head -9.734458 22.877513 -10.388927
LeftShoulder -3.080462 6.865784 11.237024
LeftArm 38.947394 -9.884639 -81.729053
LeftForeArm 5.825670 -0.000000 76.005057
LeftHand -26.651407 -0.000000 28.255993
LeftHandThumb1 -26.253704 0.000000 33.147579
RightShoulder -14.058162 11.173487 -23.510687
RightArm -15.631402 -19.009394 73.157091
RightForeArm -21.847044 -0.000000 30.572290
RightHand -4.840728 -0.000000 10.542733
RightHandThumb1 -24.326973 -0.000000 -32.862282
LeftUpLeg -20.019779 15.078879 32.718301
LeftLeg 10.764621 -0.000000 -0.000000
LeftFoot 36.281530 14.788213 -17.443300
LeftToeBase 5.161155 -0.000000 -0.000000
RightUpLeg -34.280727 -25.830542 -19.325528
RightLeg 20.576808 -0.000000 -0.000000
RightFoot -11.198558 -28.321830 -4.825903
RightToeBase -1.112827 -0.000000 0.000000
2804
root -9.115732 34.427904 -4.133900 42.675012 22.398808 39.889684
Spine -10.962803 -6.001423 -18.822631
Head -9.744455 22.950014 -10.516528
LeftShoulder -3.139380 6.914979 11.139154
LeftArm 38.841369 -9.835005 -81.579839
LeftForeArm 5.653920 0.000000 76.191192
LeftHand -26.607106 -0.000000 28.356582
LeftHandThumb1 -26.253704 0.000000 33.147579
RightShoulder -14.055837 11.186832 -23.556202
RightArm -15.680495 -19.025780 73.203496
RightForeArm -21.639130 -0.000000 30.662778
RightHand -4.851398 0.000000 10.580913
RightHandThumb1 -24.326973 -0.000000 -32.862282
LeftUpLeg -20.297603 15.292225 32.476468
LeftLeg 11.600250 -0.000000 -0.000000
LeftFoot 36.297678 14.720875 -17.456828
LeftToeBase 4.716822 -0.000000 -0.000000
RightUpLeg -34.191171 -25.929427 -19.217278
RightLeg 20.522419 -0.000000 -0.000000
RightFoot -11.253525 -28.148558 -4.778591
RightToeBase -1.103661 -0.000000 0.000000
2805
root -9.124424 34.424404 -4.134727 42.548774 22.432261 39.839444
Spine -10.823699 -5.904573 -18.641209
Head -9.761211 22.931833 -10.627436
LeftShoulder -3.167150 6.968646 11.074188
LeftArm 38.758636 -9.768168 -81.472553
LeftForeArm 5.582630 -0.000000 76.376486
LeftHand -26.638013 0.000000 28.377516
LeftHandThumb1 -26.253704 0.000000 33.147579
RightShoulder -14.094119 11.193806 -23.609303
RightArm -15.714441 -19.123767 73.266836
RightForeArm -21.582657 0.000000 30.728129
RightHand -4.867379 0.000000 10.603454
RightHandThumb1 -24.326973 -0.000000 -32.862282
LeftUpLeg -20.591033 15.559366 32.210606
LeftLeg 12.544701 -0.000000 -0.000000
LeftFoot 36.318511 14.620409 -17.538408
LeftToeBase 4.945673 -0.000000 -0.000000
RightUpLeg -34.092810 -25.985458 -19.141895
RightLeg 20.488242 -0.000000 -0.000000
RightFoot -11.311194 -28.031691 -4.739406
RightToeBase -1.100220 -0.000000 0.000000
2806
root -9.133541 34.420923 -4.137262 42.415985 22.474323 39.796893
Spine -10.666068 -5.800487 -18.472311
Head -9.773875 22.884848 -10.695649
LeftShoulder -3.203758 7.082081 11.000278
LeftArm 38.782153 -9.689459 -81.378643
LeftForeArm 5.584659 0.000000 76.509141
LeftHand -26.627664 -0.000000 28.327682
LeftHandThumb1 -26.253704 0.000000 33.147579
RightShoulder -14.125023 11.185444 -23.665863
RightArm -15.720445 -19.200333 73.336045
RightForeArm -21.586238 -0.000000 30.727319
RightHand -4.817883 -0.000000 10.557452
RightHandThumb1 -24.326973 -0.000000 -32.862282
LeftUpLeg -20.939667 15.843799 31.936154
LeftLeg 13.694038 -0.000000 -0.000000
LeftFoot 36.384884 14.409472 -17.542154
LeftToeBase 4.501408 -0.000000 -0.000000
RightUpLeg -33.975928 -26.030339 -19.087134
RightLeg 20.474213 -0.000000 -0.000000
RightFoot -11.390741 -27.961920 -4.707531
RightToeBase -1.013364 -0.000000 0.000000
2807
root -9.140255 34.416224 -4.138085 42.258598 22.522576 39.743015
Spine -10.496892 -5.703747 -18.281086
Head -9.773184 22.865402 -10.797389
LeftShoulder -3.263753 7.148978 10.916936
LeftArm 38.737849 -9.618861 -81.360962
LeftForeArm 5.580819 -0.000000 76.689844
LeftHand -26.625992 -0.000000 28.181268
LeftHandThumb1 -26.253704 0.000000 33.147579
RightShoulder -14.125974 11.172845 -23.759153
RightArm -15.679005 -19.227478 73.432255
RightForeArm -21.585464 -0.000000 30.625868
RightHand -4.702904 -0.000000 10.653071
RightHandThumb1 -24.326973 -0.000000 -32.862282
LeftUpLeg -21.292257 16.132004 31.666117
LeftLeg 14.947152 -0.000000 -0.000000
LeftFoot 36.437049 14.109603 -17.411244
LeftToeBase 4.467999 -0.000000 -0.000000
RightUpLeg -33.840213 -26.065313 -19.028363
RightLeg 20.445639 -0.000000 -0.000000
RightFoot -11.562364 -27.787518 -4.507417
RightToeBase -0.900876 -0.000000 0.000000
2808
root -9.145415 34.410155 -4.138499 42.086190 22.564750 39.680229
Spine -10.330264 -5.597573 -18.086199
Head -9.758018 22.823517 -10.881527
LeftShoulder -3.313738 7.151041 10.829363
LeftArm 38.626697 -9.538669 -81.317051
LeftForeArm 5.540075 -0.000000 76.875165
LeftHand -26.697801 -0.000000 28.126536
LeftHandThumb1 -26.253704 0.000000 33.147579
RightShoulder -14.118806 11.154590 -23.864730
RightArm -15.635331 -19.282473 73.527834
RightForeArm -21.550098 -0.000000 30.540157
RightHand -4.625443 -0.000000 10.804470
RightHandThumb1 -24.326973 -0.000000 -32.862282
LeftUpLeg -21.657872 16.425521 31.404405
LeftLeg 16.321547 -0.000000 -0.000000
LeftFoot 36.372436 14.160486 -17.635875
LeftToeBase 4.999914 -0.000000 -0.000000
RightUpLeg -33.693939 -26.056481 -18.992386
RightLeg 20.444506 -0.000000 -0.000000
RightFoot -11.643212 -27.718321 -4.442084
RightToeBase -0.866971 -0.000000 0.000000
2809
root -9.149459 34.403390 -4.139413 41.909343 22.603783 39.615779
Spine -10.166723 -5.442775 -17.904094
Head -9.737604 22.732115 -10.944626
LeftShoulder -3.305287 7.134660 10.733429
LeftArm 38.499872 -9.469587 -81.233191
LeftForeArm 5.427649 -0.000000 77.064339
LeftHand -26.702476 0.000000 28.111661
LeftHandThumb1 -26.253704 0.000000 33.147579
RightShoulder -14.134984 11.172875 -23.996759
RightArm -15.655697 -19.385589 73.663309
RightForeArm -21.578458 -0.000000 30.441739
RightHand -4.686491 -0.000000 10.778364
RightHandThumb1 -24.326973 -0.000000 -32.862282
LeftUpLeg -22.052752 16.677516 31.147361
LeftLeg 17.837772 -0.000000 -0.000000
LeftFoot 36.253940 14.405192 -17.928905
LeftToeBase 6.947664 -0.000000 -0.000000
RightUpLeg -33.537713 -26.009350 -18.981656
RightLeg 20.446517 -0.000000 -0.000000
RightFoot -11.746393 -27.679710 -4.342659
RightToeBase -0.820399 -0.000000 0.000000
2810
root -9.152713 34.395309 -4.139891 41.727246 22.624580 39.551780
Spine -10.004220 -5.289855 -17.755163
Head -9.722704 22.646947 -10.989394
LeftShoulder -3.322647 7.083818 10.661411
LeftArm 38.346271 -9.378878 -81.187691
LeftForeArm 5.357466 -0.000000 77.253260
LeftHand -26.662738 -0.000000 28.064012
LeftHandThumb1 -26.253704 0.000000 33.147579
RightShoulder -14.134728 11.181339 -24.082925
RightArm -15.689327 -19.550927 73.761717
RightForeArm -21.526547 -0.000000 30.432037
RightHand -4.813527 -0.000000 10.804355
RightHandThumb1 -24.326973 -0.000000 -32.862282
LeftUpLeg -22.470539 17.003833 30.853486
LeftLeg 19.497292 -0.000000 -0.000000
LeftFoot 36.257335 14.466524 -17.860717
LeftToeBase 7.114534 -0.000000 -0.000000
RightUpLeg -33.386448 -25.947810 -18.990963
RightLeg 20.470562 -0.000000 -0.000000
RightFoot -11.887503 -27.609141 -4.179636
RightToeBase -0.818099 -0.000000 0.000000
2811
root -9.149597 34.389103 -4.139438 41.530016 22.589140 39.497029
Spine -9.854017 -5.114522 -17.653314
Head -9.682082 22.574668 -10.983318
LeftShoulder -3.349758 7.101419 10.578805
LeftArm 38.231315 -9.266863 -81.096946
LeftForeArm 5.359657 -0.000000 77.451379
LeftHand -26.482989 -0.000000 27.763764
LeftHandThumb1 -26.253704 0.000000 33.147579
RightShoulder -14.090524 11.215952 -24.190433
RightArm -15.744930 -19.629623 73.884360
RightForeArm -21.470477 0.000000 30.364624
RightHand -4.807769 -0.000000 10.963416
RightHandThumb1 -24.326973 -0.000000 -32.862282
LeftUpLeg -22.854351 17.324654 30.522226
LeftLeg 21.240742 -0.000000 -0.000000
LeftFoot 36.233337 14.501943 -17.759730
LeftToeBase 6.976932 -0.000000 -0.000000
RightUpLeg -33.278957 -25.820920 -19.063606
RightLeg 20.609610 -0.000000 -0.000000
RightFoot -12.025598 -27.589833 -3.988594
RightToeBase -0.838846 -0.000000 0.000000
2812
root -9.147455 34.379328 -4.136382 41.303971 22.546844 39.365931
Spine -9.733408 -4.905732 -17.496022
Head -9.639961 22.480050 -10.978721
LeftShoulder -3.385241 7.154110 10.485593
LeftArm 38.130443 -9.176594 -81.049384
LeftForeArm 5.385478 -0.000000 77.676281
LeftHand -26.371487 -0.000000 27.566253
LeftHandThumb1 -26.253704 0.000000 33.147579
RightShoulder -14.057531 11.258124 -24.305080
RightArm -15.779881 -19.672740 73.988760
RightForeArm -21.416930 -0.000000 30.278505
RightHand -4.815150 -0.000000 11.042702
RightHandThumb1 -24.326973 -0.000000 -32.862282
LeftUpLeg -23.242069 17.731772 30.246322
LeftLeg 23.102235 -0.000000 -0.000000
LeftFoot 36.179250 14.564664 -17.827590
LeftToeBase 7.253674 -0.000000 -0.000000
RightUpLeg -33.171822 -25.641955 -19.078941
RightLeg 20.713233 -0.000000 -0.000000
RightFoot -12.192442 -27.554308 -3.770383
RightToeBase -0.777378 -0.000000 0.000000
